<?xml version="1.0" standalone="no"?>
<!DOCTYPE svg PUBLIC "-//W3C//DTD SVG 20010904//EN"
 "http://www.w3.org/TR/2001/REC-SVG-20010904/DTD/svg10.dtd">
<svg version="1.0" xmlns="http://www.w3.org/2000/svg"
 width="240.000000pt" height="240.000000pt" viewBox="0 0 240.000000 240.000000"
 preserveAspectRatio="xMidYMid meet">
<metadata>
Created by potrace 1.10, written by Peter Selinger 2001-2011
</metadata>
<g transform="translate(0.000000,240.000000) scale(0.050000,-0.050000)"
fill="#ffffff" stroke="none">
<path d="M2130 4788 c-2416 -369 -2926 -3525 -737 -4562 367 -174 407 -154
407 202 l0 242 -235 0 c-345 0 -452 62 -592 344 -71 142 -167 257 -282 337
-122 86 14 149 176 82 83 -35 206 -143 242 -211 79 -150 256 -261 417 -262
117 0 275 38 283 68 25 100 63 192 103 245 l47 64 -84 13 c-631 97 -940 410
-994 1006 -28 303 39 579 183 751 47 57 48 61 21 189 -27 134 -13 329 34 453
39 101 266 56 547 -108 l137 -80 143 33 c198 45 710 46 909 1 l144 -33 136 79
c280 164 507 209 546 108 47 -124 61 -319 34 -453 -26 -128 -26 -133 20 -189
135 -163 189 -343 188 -617 -4 -681 -303 -1018 -1010 -1139 l-77 -14 41 -44
c99 -105 112 -174 119 -653 10 -596 15 -602 409 -415 1934 916 1819 3673 -185
4430 -281 106 -828 173 -1090 133z"/>
</g>
</svg>
