<?xml version="1.0" standalone="no"?>
<!DOCTYPE svg PUBLIC "-//W3C//DTD SVG 20010904//EN"
 "http://www.w3.org/TR/2001/REC-SVG-20010904/DTD/svg10.dtd">
<svg version="1.0" xmlns="http://www.w3.org/2000/svg"
 width="300.000000pt" height="300.000000pt" viewBox="0 0 300.000000 300.000000"
 preserveAspectRatio="xMidYMid meet">
<metadata>
Created by potrace 1.10, written by Peter Selinger 2001-2011
</metadata>
<g transform="translate(0.000000,300.000000) scale(0.100000,-0.100000)"
fill="#ffffff" stroke="none">
<path d="M208 2986 c-102 -27 -176 -107 -198 -210 -7 -35 -10 -448 -8 -1306
l3 -1255 28 -57 c31 -64 70 -101 137 -132 45 -21 47 -21 1330 -21 l1285 0 57
28 c64 31 101 70 132 137 21 45 21 47 21 1330 0 1283 0 1285 -21 1330 -31 67
-68 106 -132 137 l-57 28 -1265 2 c-998 1 -1275 -1 -1312 -11z m617 -348 c60
-31 114 -86 146 -148 20 -38 24 -60 24 -140 0 -84 -3 -101 -27 -145 -32 -60
-87 -115 -148 -146 -67 -33 -177 -38 -251 -10 -75 29 -141 88 -176 159 -24 49
-28 69 -28 142 0 73 4 93 28 142 34 69 100 130 171 158 73 29 192 23 261 -12z
m1518 -751 c120 -47 199 -120 262 -245 70 -141 85 -291 85 -839 l0 -424 -25
-24 c-24 -25 -24 -25 -235 -25 -197 0 -211 1 -230 20 -19 19 -20 33 -20 418 0
218 -5 429 -10 467 -15 104 -59 188 -117 222 -55 32 -141 42 -208 23 -89 -25
-157 -113 -184 -238 -7 -35 -11 -194 -11 -458 l0 -405 -25 -24 c-24 -25 -25
-25 -226 -25 -194 0 -204 1 -226 22 l-23 21 0 741 0 740 22 23 c21 23 25 23
225 23 203 0 204 0 228 -25 22 -21 25 -33 25 -90 l0 -67 49 55 c102 110 217
149 436 143 122 -3 149 -6 208 -29z m-1438 -12 l25 -24 0 -736 0 -736 -25 -24
c-24 -25 -25 -25 -223 -25 -182 0 -202 2 -223 19 l-24 19 -3 724 c-1 397 0
733 3 746 3 12 14 31 25 42 19 19 34 20 220 20 200 0 201 0 225 -25z"/>
</g>
</svg>
